<?xml version="1.0" encoding="UTF-8"?>
<svg id="Layer_1" xmlns="http://www.w3.org/2000/svg" version="1.1" viewBox="0 0 1097.3 1199.3">
  <!-- Generator: Adobe Illustrator 29.0.0, SVG Export Plug-In . SVG Version: 2.1.0 Build 186)  -->
  <defs>
    <style>
      .st0 {
        fill: #fff;
      }
    </style>
  </defs>
  <path class="st0" d="M346.4,503.5c1.8,5,5.2,9.4,9.5,12.5l46.2,33c8.4,6,19.6,6.6,28.6,1.5l47.1-26.7c5-2.9,9-7.3,11.3-12.6l39-89.9c2.9-6.7,4.7-13.9,5.3-21.2l12.5-160.2c.3-4.4.4-8.9.3-13.3l-3.4-92.9c0-.8,0-1.6-.2-2.4l-8.6-67.9c-.7-5.3-3-10.3-6.5-14.3l-24.9-28c-2.1-2.4-5.6-3.3-8.6-2.2l-18.5,6.7c-3.3,1.2-6.3,3-8.9,5.4l-32.3,29.5c-2.1,1.9-3.9,4.2-5.3,6.6l-87.1,155.3c-3.2,5.7-5.3,11.8-6.3,18.2l-23.7,149.4c-1.4,8.9-.5,18.1,2.6,26.5l31.8,86.9Z"/>
  <path class="st0" d="M591.1,457.9c1.3,9.8,4.4,19.3,9.3,28l23.5,42.3c5.2,9.4,13.4,16.8,23.2,21.1l17.4,7.7c11.1,4.9,23.8,4.5,34.7-.9l17.2-8.6c11.1-5.6,20-14.7,25.3-26l29.5-63.2c4.2-9,5.9-19,4.8-28.9l-12.9-119.7c-1.4-12.8-5.5-25.1-12.2-36.1l-78.6-129.8c-1.6-2.7-3.7-5-6.1-7l-29.5-23.6c-2.6-2.1-5.8-3.2-9.2-3.2h0c-5.8,0-14.3,3-18.9,6.7l-5.5,4.5c-5.5,4.5-9.5,10.7-11.3,17.6l-6.8,26c-1.7,6.6-2.7,13.4-2.9,20.3l-4.1,160.4c-.1,5.9.2,11.8.9,17.6l12.4,94.9Z"/>
  <path class="st0" d="M843.2,819.5c-.2-.9-1.1-1.5-1.9-1.3-.5.1-.9.4-1.1.9-2.7,5.5-5.3,10.9-8,16.4-.4.8,0,1.8.8,2.2.2,0,.3.1.5.2,3.9.5,7.8.9,11.7,1.4.9.1,1.7-.5,1.8-1.4,0-.2,0-.4,0-.5-1.2-5.9-2.4-11.9-3.7-17.8Z"/>
  <path class="st0" d="M242.2,806.9c-1.2-1.4-2.7-2.6-4.3-3.4-2-1.1-4.1-1.8-6.3-2.2-1.6-.3-3.2-.5-4.8-.5-1.2,0-2.2,1-2.2,2.3,0,0,0,.2,0,.3,1,7.6,2,15.2,3,22.8.2,1.2,1.3,2.1,2.5,1.9,0,0,.2,0,.3,0,1.5-.4,3.1-1,4.5-1.7,2-1,3.9-2.2,5.5-3.8,1.5-1.4,2.6-3,3.4-4.8,1.6-3.6,1-7.8-1.6-10.8h0Z"/>
  <path class="st0" d="M406.3,806.8c-.3-.8-1.3-1.2-2.1-.9-.5.2-.8.6-.9,1.1-1.7,5.8-3.3,11.7-5,17.6-.2.9.3,1.8,1.1,2,.2,0,.4,0,.6,0l11.7-.7c.9,0,1.6-.8,1.5-1.7,0-.2,0-.4-.1-.5-2.2-5.6-4.5-11.2-6.7-16.9Z"/>
  <path class="st0" d="M1023.9,834.8c-1.8-2.9-4.1-5.4-6.8-7.5-2.3-1.8-4.8-3.1-7.5-4.1-.9-.3-1.8.1-2.1,1,0,0,0,.2,0,.3l-9.1,48.9c-.2.9.5,1.8,1.4,1.9,0,0,.2,0,.2,0,2.8,0,5.6-.3,8.3-1,3.2-.8,6.2-2.2,8.9-4,2.7-1.8,4.9-4.1,6.7-6.8,1.9-2.8,3.1-5.8,3.8-9.1.7-3.4.7-6.8,0-10.2-.6-3.3-1.9-6.5-3.7-9.4Z"/>
  <path class="st0" d="M1016,775.8c-47.6-9.4-95-17-141.8-23-2.6-.3-4.4-2.7-4.1-5.3,0-.5.2-.9.4-1.4l26.6-59.7c2.5-5.7,3-12,1.3-18l-23.8-84.8c-.9-3.2-2.4-6.2-4.4-8.9l-23.7-31.4c-4.8-6.4-12.3-10.2-20.3-10.5l-25.3-.9c-7.3-.3-14.3,2.4-19.6,7.4l-5.8,5.5c-2,1.9-3.7,4.1-5,6.5l-32.3,58.5c-1.1,2.1-2,4.3-2.6,6.6l-23.1,95.6c-.8,3.3-.9,6.7-.5,10.1l1.4,10c.4,2.7-1.5,5.3-4.2,5.7-.3,0-.7,0-1,0-11.2-.6-22.4-1.2-33.5-1.6-2.3,0-4.3-1.8-4.7-4.1l-27.4-151.2c-.2-1.2-.9-2.3-1.9-3.1l-40.5-31.5c-.8-.6-1.7-.9-2.7-1l-13.2-.9c-2.4-.2-4.5,1.4-5.2,3.7l-1.4,5.2c-.4,1.4-1.3,2.5-2.6,3.2l-41.7,20.4c-2,1-4.3.6-5.8-1l-13.9-14.6c-.7-.8-1.2-1.8-1.3-2.9l-.9-7.3c-.3-2.7-2.7-4.6-5.4-4.4l-13.4,1c-1.9.1-3.5,1.3-4.2,3l-53.1,119.4c-.3.7-.5,1.5-.4,2.3l1.3,25.9c0,.9-.2,1.9-.6,2.7l-10.6,18.8c-.4.7-.6,1.5-.6,2.4l-.2,10.5c0,3-2.4,5.4-5.4,5.6-6.1.3-18.3,1.1-18.4,1.1-4.1.2-3.1-3.4-3-3.5,2-5.5,2.1-11.4.4-17l-46.1-149.7c-1.9-6.1-4.8-11.9-8.6-17.1l-21.6-29.1c-5.3-7.1-13.8-11.2-22.6-10.8l-46.3,2.2c-7.3.3-14,3.8-18.4,9.6l-7.6,9.8c-2,2.6-3.5,5.5-4.4,8.6l-44.6,147.4c-1.4,4.6-1.5,9.6-.3,14.3l12.8,50.6c.7,2.7-1,5.5-3.7,6.2-.2,0-.3,0-.5.1-84.6,11.8-142.1,24.1-161.4,28.4-4,.9-6.5,4.8-5.7,8.8l26.8,129.4c.8,4,4.8,6.6,8.8,5.8,0,0,.1,0,.2,0,29.3-6.7,142.9-30.8,305.8-43.5,3.3-.3,6.4,2,7.1,5.3l53.3,247c.3,1.5,1.3,2.7,2.6,3.4l3.8,1.9c.8.4,1.4.9,1.9,1.6l15.8,23.1c.9,1.3,2.3,2.1,3.9,2.2l5.4.2c2.6.1,4.8-1.7,5.2-4.2l4.2-26.8c.1-.9.6-1.8,1.2-2.5l10.3-11.9c.7-.8,1.2-1.9,1.2-3l.7-12.1c0-1.4.7-2.7,1.8-3.6l10.9-8.9c1.5-1.2,2.2-3.3,1.7-5.2l-3.4-12.9c-.3-1.2-.2-2.5.4-3.6l5.9-11.3c1.2-2.3,3.9-3.3,6.4-2.3l20,8.2c1.9.8,4.2.3,5.6-1.2l11.3-12.1.3-.3,52.4-48c1.1-1,1.7-2.5,1.6-4l-1.9-37.2c-.2-2.8,2-5.1,4.7-5.3,0,0,0,0,0,0l9.3-.5c1.4,0,2.7.4,3.7,1.4l18.4,17.8c1.7,1.6,4.2,1.9,6.2.6l124.8-80.1c.5-.3,1-.8,1.3-1.3l6.6-9c2.1-3,5.7-4.6,9.3-4.3,73.6,6.3,146.7,16.3,219.3,30,11.7,2.3,23.7,1.7,35.1-1.7,18-5.5,37.4-20,45.6-55.3,0-.2,0-.4.1-.6,7.3-40.5-18-79.5-58.4-87.5ZM116.5,857.5c-11.3,2.1-22.6,4.2-33.9,6.4-.9.2-1.5,1-1.3,1.9,0,0,0,0,0,0,2.3,11.4,4.6,22.9,6.8,34.3.2.9-.4,1.7-1.3,1.9-6.4,1.3-12.9,2.5-19.3,3.9-.9.2-1.7-.4-1.9-1.3-6.4-31.1-12.9-62.2-19.3-93.3-.2-.9.4-1.7,1.3-1.9,0,0,0,0,0,0,19.4-4,38.8-7.8,58.2-11.3.9-.2,1.7.4,1.9,1.3,0,0,0,0,0,0,1.2,6.4,2.3,12.7,3.5,19.1.2.9-.4,1.7-1.3,1.9,0,0,0,0,0,0-11.5,2.1-23,4.3-34.5,6.5-.9.2-1.5,1-1.3,1.9,0,0,0,0,0,0l2.2,11.4c.2.9,1,1.5,1.9,1.3,11.4-2.2,22.8-4.4,34.2-6.5.9-.2,1.7.4,1.9,1.3,0,0,0,0,0,0,1.2,6.4,2.3,12.8,3.5,19.1.1.9-.4,1.7-1.3,1.9h0ZM200.2,859.1c-1.2,4.7-3.3,9.1-6.2,13-2.9,3.9-6.4,7.3-10.5,9.9-4.2,2.7-9,4.5-13.9,5.4h-.4c-9.7,1.7-19.7-.5-27.9-6-4.1-2.8-7.6-6.4-10.3-10.5-2.7-4.1-4.6-8.7-5.6-13.6-3.5-19.7-7-39.4-10.5-59.1-.2-.9.4-1.7,1.3-1.9,0,0,0,0,0,0,6.8-1.2,13.5-2.4,20.3-3.5.9-.2,1.7.4,1.9,1.3l9.9,59c.7,3.9,2.9,7.3,6.2,9.5,5.5,3.7,12.6,3.4,17.9-.5,1.1-.9,2.1-1.9,3-3.1,1.1-1.5,2-3.3,2.4-5.1.5-1.9.5-3.9.2-5.8l-9.1-58.8c-.1-.9.5-1.7,1.4-1.9,6.8-1,13.5-2.1,20.3-3.1.9-.1,1.7.5,1.8,1.4,0,0,0,0,0,0,2.9,19.6,5.7,39.1,8.6,58.7.8,4.9.6,9.9-.7,14.7h0ZM282.6,871.3c-7.6.9-15.3,1.8-22.9,2.7-.6,0-1.1-.2-1.5-.6-5.9-7.3-11.9-14.5-17.9-21.8-.4-.5-1.1-.7-1.7-.5-.8.2-1.6.4-2.5.6l-2.1.4c-.8.2-1.4,1-1.3,1.8,1,7.2,1.9,14.3,2.9,21.5.1.9-.5,1.7-1.4,1.8-6.5.9-13,1.8-19.4,2.7-.9.1-1.7-.5-1.9-1.4-4.5-31.3-8.9-62.7-13.4-94-.1-.9.5-1.7,1.4-1.8,0,0,0,0,0,0,7.3-1,14.7-2,22-3,5.6-.7,11.3-.4,16.9.9,5.1,1.2,10,3.3,14.4,6.2,4.1,2.7,7.7,6.2,10.4,10.4,2.7,4.1,4.3,8.8,4.9,13.6.6,5.1,0,10.2-1.7,15-1.6,4.3-4.1,8.3-7.2,11.8-.6.6-.6,1.5,0,2.2,7.8,9.6,15.6,19.2,23.3,28.9.6.7.4,1.7-.3,2.3-.2.2-.5.3-.8.3h0ZM362,850.9c-4.1,4.5-8.9,8.2-14.4,10.9-11.6,5.8-24.9,7-37.4,3.5-6.4-1.8-12.4-4.8-17.5-9-5.1-4.1-9.3-9.1-12.5-14.8-3.2-5.6-5.2-11.9-5.9-18.3-1.6-13.1,2.3-26.3,10.9-36.3,4.4-5.3,9.8-9.5,15.9-12.6,12-6.1,25.8-7.4,38.7-3.6,6,1.7,11.6,4.5,16.5,8.4.7.5.8,1.6.3,2.3,0,0,0,0,0,0-4.4,4.9-8.7,9.9-13.1,14.8-.5.6-1.5.7-2.1.3-2.6-1.9-5.4-3.3-8.5-4.1-3.4-1-7-1.3-10.6-1-3.5.3-7,1.3-10.1,2.9-3.3,1.6-6.2,3.9-8.5,6.7-2.3,2.7-4,5.9-5,9.3-1,3.4-1.4,6.9-1,10.4.3,3.5,1.4,6.8,3.1,9.9,1.7,3.1,4,5.8,6.8,8,2.8,2.3,6,3.9,9.5,4.9,3.3,1,6.8,1.3,10.3,1,3.5-.3,6.9-1.3,10-2.9,2.8-1.4,5.3-3.2,7.5-5.5.6-.6,1.6-.7,2.2,0,5,4.2,10,8.4,15,12.6.7.6.8,1.6.2,2.3,0,0,0,0,0,0h0ZM448.8,858.7c-6.9.3-13.7.6-20.6,1-.7,0-1.3-.4-1.6-1l-3.7-9.5c-.3-.6-.9-1-1.6-1-9.6.5-19.3,1.1-29,1.8-.7,0-1.3.5-1.5,1.2-.9,3.3-1.8,6.6-2.6,9.9-.2.7-.8,1.2-1.5,1.2-6.9.5-13.8,1-20.7,1.5-.9,0-1.7-.6-1.8-1.5,0-.2,0-.3,0-.5,8.4-32.5,17.2-65,26.4-97.5.2-.7.8-1.1,1.5-1.2,6.7-.4,13.4-.8,20.1-1.2.7,0,1.3.4,1.6,1,12.5,31.1,24.6,62.3,36.2,93.7.3.9-.2,1.8-1.1,2-.1,0-.2,0-.3,0h0ZM494.5,781.2c-5.4.1-10.9.3-16.4.4-.9,0-1.6.8-1.6,1.7l2.3,73c0,.9-.7,1.7-1.6,1.7,0,0,0,0,0,0-6.5.2-13,.4-19.5.7-.9,0-1.7-.7-1.7-1.5,0,0,0,0,0,0-1-24.3-2-48.6-3-73,0-.9-.8-1.6-1.7-1.6,0,0,0,0,0,0-5.4.2-10.8.5-16.2.7-.9,0-1.7-.6-1.7-1.5,0,0,0,0,0,0-.3-6.5-.6-12.9-.9-19.4,0-.9.7-1.7,1.6-1.7,0,0,0,0,0,0,20-.9,40-1.7,60-2.1.9,0,1.7.7,1.7,1.6.2,6.5.3,12.9.4,19.4,0,.9-.7,1.6-1.6,1.7h0ZM523.8,856.7c-6.5,0-13,.2-19.5.3-.9,0-1.6-.7-1.7-1.6l-2-95.4c0-.9.7-1.6,1.6-1.7,6.8-.1,13.7-.3,20.5-.3.9,0,1.6.7,1.7,1.6h0s1.1,95.4,1.1,95.4c0,.9-.7,1.6-1.6,1.6h0ZM535.1,823.1c-1.4-4-2.3-8.1-2.6-12.4-.6-6.6.2-13.2,2.4-19.5,2.1-6,5.4-11.6,9.6-16.4,14.1-15.3,35.9-20.8,55.5-13.9,6.2,2.2,11.9,5.5,16.9,9.8l.4.3c-1-.5-1.9-1-2.9-1.5-3.6-1.8-7.3-3.1-11.2-4-4.7-1.2-9.6-1.7-14.4-1.4l1,4.5c.7,3.4,1.7,8.4,2.3,13.6-10.5-3.7-22.2-.7-29.7,7.5-2.3,2.6-4.1,5.6-5.3,8.8-1.2,3.3-1.7,6.9-1.4,10.4.2,3.5,1.2,7,2.9,10.2,1,1.8,2.1,3.6,3.5,5.1h-.7c-7.3,1.2-14.7,1-22-.3l-4.2-.9ZM630.2,824.2c-2.3,5.9-5.7,11.4-10.1,16.1-4.4,4.7-9.6,8.5-15.3,11.3-12.1,5.8-25.9,6.6-38.5,2.2-6-2.1-11.6-5.3-16.5-9.4-4.8-4.2-8.8-9.2-11.8-14.8,0-.1,45.4,10.3,55.2-26.1,1,2.2,1.6,4.5,1.9,6.9,0,0,7.1-13.7,1.1-40.3,0,0,18.1.9,29.2,15.8.3-2,.2-4.1-.3-6.1,1.3,1.9,2.5,3.9,3.6,6,2.9,5.9,4.6,12.4,4.8,19,.3,6.6-.8,13.2-3.2,19.4h0ZM718.5,860.5c0,.9-.8,1.6-1.7,1.5,0,0,0,0,0,0-7.3-.5-14.7-1-22.1-1.4-.6,0-1.1-.4-1.4-.9-8.7-17.7-17.5-35.3-26.6-52.8-.4-.8-1.4-1.1-2.2-.7-.5.3-.8.8-.9,1.4-.7,16.6-1.5,33.1-2.2,49.7,0,.9-.8,1.6-1.7,1.6,0,0,0,0,0,0-6.5-.3-13-.5-19.5-.8-.9,0-1.6-.8-1.6-1.7,0,0,0,0,0,0,1.1-31.7,2.3-63.3,3.4-95,0-.9.8-1.6,1.7-1.6,7.8.3,15.5.6,23.3,1,.6,0,1.1.4,1.4.9,9.2,17.5,18.2,35.1,27,52.7.4.8,1.4,1.1,2.2.7.5-.3.9-.8.9-1.3,1-16.6,2-33.2,3-49.8,0-.9.8-1.6,1.7-1.5,6.8.4,13.6.8,20.5,1.3.9,0,1.6.8,1.5,1.8-2.2,31.7-4.4,63.4-6.6,95h0ZM784.4,866.1c0,.9-.9,1.5-1.8,1.5,0,0,0,0,0,0-18.5-1.8-37-3.3-55.6-4.7-.9,0-1.6-.8-1.5-1.7l6.8-95.2c0-.9.8-1.6,1.7-1.5,0,0,0,0,0,0,6.8.5,13.6,1,20.4,1.6.9,0,1.6.9,1.5,1.8,0,0,0,0,0,0-2,24.2-4,48.3-5.9,72.5,0,.9.6,1.7,1.5,1.8,0,0,0,0,0,0,11.1.9,22.1,1.9,33.2,3,.9,0,1.6.9,1.5,1.8-.6,6.4-1.2,12.9-1.8,19.3h0ZM876,878.2c-6.8-.9-13.7-1.8-20.5-2.7-.7,0-1.3-.6-1.4-1.3-.7-3.3-1.3-6.7-2-10-.1-.7-.7-1.2-1.4-1.3-9.6-1.2-19.2-2.3-28.8-3.4-.7,0-1.4.3-1.7.9-1.5,3.1-2.9,6.2-4.4,9.3-.3.6-1,1-1.7.9-6.9-.7-13.8-1.5-20.6-2.2-.9,0-1.6-.9-1.5-1.8,0-.2,0-.4.1-.5,14-30.5,28.4-60.9,43.3-91.2.3-.6,1-1,1.7-.9,6.7.8,13.4,1.5,20,2.4.7,0,1.3.6,1.4,1.3,6.8,32.8,13.2,65.7,19.2,98.6.1.9-.5,1.7-1.4,1.9-.1,0-.3,0-.4,0ZM962.8,891.5c-7.3-1.3-14.6-2.5-21.9-3.7-.6,0-1.1-.5-1.3-1-6.8-18.5-13.8-36.9-21.1-55.3-.3-.8-1.3-1.2-2.1-.9-.5.2-.9.7-1,1.3-2.5,16.4-4.9,32.8-7.3,49.2-.1.9-1,1.5-1.8,1.4,0,0,0,0,0,0-6.5-1-12.9-1.9-19.4-2.8-.9-.1-1.5-.9-1.4-1.8,0,0,0,0,0,0,4.4-31.4,8.8-62.7,13.1-94.1.1-.9,1-1.5,1.8-1.4,0,0,0,0,0,0,7.7,1.1,15.4,2.2,23.1,3.3.6,0,1.1.5,1.3,1,7.4,18.4,14.6,36.8,21.5,55.2.3.8,1.2,1.3,2.1,1,.6-.2,1-.7,1-1.3,2.7-16.4,5.4-32.8,8.1-49.2.1-.9,1-1.5,1.9-1.4,0,0,0,0,0,0,6.8,1.1,13.5,2.2,20.3,3.4.9.2,1.5,1,1.3,1.9h0c-5.4,31.3-10.9,62.6-16.3,93.9-.2.9-1,1.5-1.9,1.3,0,0,0,0,0,0h0ZM1050.5,859c-1.3,6.3-3.8,12.2-7.4,17.5-3.5,5.1-7.9,9.4-13,12.9-5.2,3.5-10.9,6-17,7.4-6.3,1.5-12.9,1.8-19.3.9h-.1c-6.9-1.3-13.9-2.6-20.9-3.8-.9-.2-1.5-1-1.3-1.9,0,0,0,0,0,0,5.6-31.5,11.1-62.9,16.7-94.4.2-.9,1-1.5,1.9-1.3,0,0,0,0,0,0,7.3,1.3,14.6,2.6,21.8,4,0,0,0,0,0,.1,12.9,3.1,24.2,11,31.5,22,3.5,5.3,5.9,11.2,7.2,17.3,1.3,6.4,1.2,12.9-.1,19.3Z"/>
</svg>