<svg id="Layer_1" data-name="Layer 1" xmlns="http://www.w3.org/2000/svg" viewBox="0 0 1097.34 1199.34"><path d="M346.4,503.54a26.65,26.65,0,0,0,9.53,12.5l46.23,33a26.6,26.6,0,0,0,28.59,1.5l47.11-26.66a26.64,26.64,0,0,0,11.31-12.58l39-89.85a66.56,66.56,0,0,0,5.28-21.23L546,240.05a118.53,118.53,0,0,0,.27-13.33l-3.38-92.86c0-.79-.1-1.59-.2-2.38l-8.6-67.91a26.63,26.63,0,0,0-6.53-14.35l-24.9-28a7.9,7.9,0,0,0-8.59-2.18l-18.51,6.7a26.6,26.6,0,0,0-8.9,5.38L434.39,60.59a26.85,26.85,0,0,0-5.26,6.64L342,222.56a54.89,54.89,0,0,0-6.33,18.22L312,390.13a52.93,52.93,0,0,0,2.58,26.54Z"/><path d="M591.14,457.91a78.72,78.72,0,0,0,9.26,28l23.54,42.32a49.15,49.15,0,0,0,23.21,21.1L664.52,557a40.84,40.84,0,0,0,34.65-.9l17.19-8.61a55.14,55.14,0,0,0,25.28-26l29.49-63.23a54.45,54.45,0,0,0,4.8-28.87L763,309.67a87.72,87.72,0,0,0-12.21-36.13L672.16,143.7a26.65,26.65,0,0,0-6.14-7l-29.51-23.62a14.7,14.7,0,0,0-9.19-3.23h0c-5.85,0-14.35,3-18.88,6.73l-5.52,4.51a33.76,33.76,0,0,0-11.32,17.63l-6.81,26a89.15,89.15,0,0,0-2.87,20.3l-4.1,160.43a113.84,113.84,0,0,0,.92,17.61Z"/><path d="M843.22,819.53a1.64,1.64,0,0,0-3.08-.38q-4,8.21-8,16.42a1.63,1.63,0,0,0,1.28,2.33c3.89.46,7.79.91,11.68,1.38a1.63,1.63,0,0,0,1.8-1.94Q845.08,828.43,843.22,819.53Z"/><path d="M242.19,806.92a15.09,15.09,0,0,0-4.29-3.43,21.17,21.17,0,0,0-6.33-2.23,25.13,25.13,0,0,0-4.84-.46,2.21,2.21,0,0,0-2.14,2.51q1.53,11.4,3,22.8a2.2,2.2,0,0,0,2.71,1.86,24.67,24.67,0,0,0,4.49-1.68,21.73,21.73,0,0,0,5.51-3.75,14.67,14.67,0,0,0,3.43-4.84,10.25,10.25,0,0,0-1.58-10.78Z"/><path d="M406.31,806.78a1.64,1.64,0,0,0-3.09.17q-2.5,8.77-5,17.57a1.63,1.63,0,0,0,1.68,2.07l11.71-.71a1.63,1.63,0,0,0,1.43-2.23Q409.71,815.21,406.31,806.78Z"/><path d="M1023.89,834.83a29.45,29.45,0,0,0-6.81-7.46,27.46,27.46,0,0,0-7.53-4.11,1.64,1.64,0,0,0-2.17,1.24l-9.12,48.88a1.66,1.66,0,0,0,1.59,1.94,29.68,29.68,0,0,0,8.34-1,28.74,28.74,0,0,0,8.88-4,25.59,25.59,0,0,0,6.73-6.83,24.56,24.56,0,0,0,3.77-9.11,26.28,26.28,0,0,0,0-10.19A27,27,0,0,0,1023.89,834.83Z"/><path d="M1016,775.83c-47.64-9.44-95-17-141.76-23a4.74,4.74,0,0,1-3.74-6.64l26.63-59.74a26.6,26.6,0,0,0,1.32-18l-23.78-84.79a26.57,26.57,0,0,0-4.42-8.89L846.52,543.4a26.65,26.65,0,0,0-20.3-10.53L800.91,532a27.11,27.11,0,0,0-19.59,7.42l-5.77,5.48a26.54,26.54,0,0,0-5,6.46l-32.28,58.55a26.59,26.59,0,0,0-2.57,6.61l-23.06,95.63a26.63,26.63,0,0,0-.46,10.06l1.44,10a5,5,0,0,1-5.22,5.7q-16.87-.93-33.55-1.61a5,5,0,0,1-4.71-4.1L642.74,581.05a5,5,0,0,0-1.86-3.07l-40.49-31.49a5,5,0,0,0-2.73-1l-13.18-.91a5,5,0,0,0-5.18,3.65l-1.44,5.16a5,5,0,0,1-2.63,3.16l-41.74,20.37a5,5,0,0,1-5.83-1l-13.93-14.62a5,5,0,0,1-1.35-2.87l-.87-7.33a5,5,0,0,0-5.35-4.42l-13.35,1a5,5,0,0,0-4.21,3L435.47,670.12a5,5,0,0,0-.43,2.28l1.28,25.87a5.09,5.09,0,0,1-.64,2.7l-10.56,18.85a5.11,5.11,0,0,0-.64,2.36l-.19,10.47a5.72,5.72,0,0,1-5.4,5.61c-6.15.33-18.33,1.07-18.37,1.07-4.1.25-3.06-3.44-3-3.52a26.71,26.71,0,0,0,.43-16.95l-46.1-149.74a56.58,56.58,0,0,0-8.63-17.06L321.64,523A26.64,26.64,0,0,0,299,512.22l-46.34,2.22A24.77,24.77,0,0,0,234.22,524l-7.57,9.76a26.6,26.6,0,0,0-4.45,8.6L177.57,689.71a26.67,26.67,0,0,0-.33,14.26l12.83,50.59a5.13,5.13,0,0,1-4.25,6.33C101.27,772.73,43.76,785,24.42,789.3a7.49,7.49,0,0,0-5.68,8.83l26.8,129.4a7.47,7.47,0,0,0,9,5.78c29.26-6.68,142.87-30.85,305.83-43.52a6.71,6.71,0,0,1,7.07,5.27l53.31,247a5,5,0,0,0,2.64,3.42l3.81,1.93a4.93,4.93,0,0,1,1.87,1.64l15.81,23.12a5,5,0,0,0,3.93,2.18l5.36.23a5,5,0,0,0,5.17-4.23l4.21-26.83a5,5,0,0,1,1.17-2.51l10.34-11.91a5.06,5.06,0,0,0,1.22-3L477,1114a5,5,0,0,1,1.83-3.6l10.89-8.89a5,5,0,0,0,1.67-5.16L488,1083.47a5,5,0,0,1,.4-3.59l5.88-11.32a5,5,0,0,1,6.35-2.33l20,8.21a5,5,0,0,0,5.57-1.23l11.28-12.14.29-.29,52.41-48a5,5,0,0,0,1.62-4l-1.9-37.19a5,5,0,0,1,4.76-5.27l9.27-.46a5,5,0,0,1,3.74,1.4l18.42,17.79a5,5,0,0,0,6.19.62l124.79-80.1a5,5,0,0,0,1.35-1.27l6.56-9.05a10.4,10.4,0,0,1,9.32-4.27,2211.69,2211.69,0,0,1,219.29,30,73.43,73.43,0,0,0,35.13-1.71c18-5.5,37.41-20,45.59-55.35,0-.19.08-.39.11-.58C1081.72,822.86,1056.4,783.84,1016,775.83Zm-899.52,81.7q-17,3.08-33.88,6.41a1.62,1.62,0,0,0-1.29,1.92Q84.74,883,88.12,900.2a1.64,1.64,0,0,1-1.28,1.92Q77.18,904,67.55,906a1.63,1.63,0,0,1-1.92-1.27Q56,858.09,46.3,811.42a1.63,1.63,0,0,1,1.27-1.93q29.06-6,58.2-11.3a1.63,1.63,0,0,1,1.9,1.32q1.74,9.56,3.46,19.12a1.62,1.62,0,0,1-1.31,1.89Q92.57,823.66,75.37,827A1.64,1.64,0,0,0,74.08,829l2.25,11.41a1.63,1.63,0,0,0,1.91,1.29q17.1-3.36,34.23-6.48a1.63,1.63,0,0,1,1.9,1.32q1.74,9.57,3.47,19.12A1.63,1.63,0,0,1,116.52,857.53Zm83.73,1.61a37.93,37.93,0,0,1-6.2,13A39.19,39.19,0,0,1,183.47,882a37.63,37.63,0,0,1-13.9,5.4l-.4.07a38.34,38.34,0,0,1-27.87-6.09A39,39,0,0,1,131,870.9a37.09,37.09,0,0,1-5.55-13.61q-5.27-29.53-10.52-59.07a1.63,1.63,0,0,1,1.32-1.9q10.13-1.8,20.27-3.51a1.64,1.64,0,0,1,1.89,1.34l9.93,59a14.09,14.09,0,0,0,6.18,9.45,15.35,15.35,0,0,0,17.86-.55,15.76,15.76,0,0,0,3-3.11,13.87,13.87,0,0,0,2.39-5.13A15,15,0,0,0,178,848l-9.15-58.76a1.65,1.65,0,0,1,1.37-1.88q10.16-1.56,20.32-3.06a1.63,1.63,0,0,1,1.85,1.39q4.29,29.36,8.57,58.71A34.91,34.91,0,0,1,200.25,859.14Zm82.44,12.15q-11.46,1.31-22.92,2.71a1.62,1.62,0,0,1-1.46-.59q-8.88-10.92-17.89-21.79a1.63,1.63,0,0,0-1.69-.52c-.82.21-1.64.4-2.46.58l-2.13.44a1.63,1.63,0,0,0-1.29,1.82q1.43,10.75,2.86,21.5a1.63,1.63,0,0,1-1.4,1.83q-9.72,1.31-19.43,2.69a1.65,1.65,0,0,1-1.85-1.39q-6.71-47-13.42-94a1.63,1.63,0,0,1,1.39-1.85q11-1.56,22-3a47.57,47.57,0,0,1,16.87.92,45.25,45.25,0,0,1,14.43,6.19,36.3,36.3,0,0,1,10.39,10.38,31.12,31.12,0,0,1,4.88,13.61,32.08,32.08,0,0,1-1.74,15,35.89,35.89,0,0,1-7.19,11.75,1.64,1.64,0,0,0-.08,2.15q11.76,14.4,23.27,28.93A1.63,1.63,0,0,1,282.69,871.29Zm79.4-20.37a48.51,48.51,0,0,1-14.35,10.86,52.32,52.32,0,0,1-37.4,3.51,49.14,49.14,0,0,1-17.53-9,51.06,51.06,0,0,1-12.55-14.76,48.16,48.16,0,0,1-5.88-18.32,47.12,47.12,0,0,1,10.91-36.35,49.4,49.4,0,0,1,15.88-12.6,52.83,52.83,0,0,1,38.69-3.62A49.19,49.19,0,0,1,356.37,779a1.62,1.62,0,0,1,.21,2.36q-6.58,7.41-13.08,14.85a1.61,1.61,0,0,1-2.15.26,26.56,26.56,0,0,0-8.51-4.13,29.19,29.19,0,0,0-10.59-1,28.76,28.76,0,0,0-10.15,2.93,26.58,26.58,0,0,0-8.49,6.72,27.76,27.76,0,0,0-5.05,9.29,25.68,25.68,0,0,0-1,10.37,25.22,25.22,0,0,0,3.11,9.87,28.39,28.39,0,0,0,6.75,8,26.75,26.75,0,0,0,9.49,4.92,28.05,28.05,0,0,0,10.31,1,28.62,28.62,0,0,0,10-2.87,26.27,26.27,0,0,0,7.47-5.5,1.62,1.62,0,0,1,2.21-.1q7.54,6.28,15,12.63A1.63,1.63,0,0,1,362.09,850.92Zm86.76,7.76q-10.29.45-20.59,1a1.61,1.61,0,0,1-1.6-1l-3.7-9.52a1.64,1.64,0,0,0-1.62-1q-14.47.79-28.95,1.76a1.62,1.62,0,0,0-1.47,1.21q-1.34,5-2.65,9.94a1.62,1.62,0,0,1-1.46,1.21q-10.33.72-20.67,1.52a1.64,1.64,0,0,1-1.72-2q12.56-48.79,26.42-97.47a1.65,1.65,0,0,1,1.47-1.19q10.06-.64,20.13-1.22a1.66,1.66,0,0,1,1.62,1q18.74,46.7,36.25,93.65A1.63,1.63,0,0,1,448.85,858.68Zm45.65-77.45q-8.17.19-16.37.44a1.64,1.64,0,0,0-1.58,1.69l2.26,73a1.63,1.63,0,0,1-1.58,1.68q-9.78.32-19.55.7a1.62,1.62,0,0,1-1.69-1.57q-1.49-36.46-3-72.95a1.63,1.63,0,0,0-1.7-1.57q-8.11.33-16.22.72a1.63,1.63,0,0,1-1.71-1.55q-.47-9.7-.94-19.4a1.64,1.64,0,0,1,1.56-1.72q30-1.42,60-2.14a1.65,1.65,0,0,1,1.68,1.6q.23,9.71.44,19.42A1.62,1.62,0,0,1,494.5,781.23Zm29.33,75.5q-9.78.12-19.55.32a1.64,1.64,0,0,1-1.67-1.6l-2-95.42a1.64,1.64,0,0,1,1.6-1.67q10.24-.21,20.48-.34a1.64,1.64,0,0,1,1.66,1.62l1.11,95.44A1.64,1.64,0,0,1,523.83,856.73Zm11.29-33.65a48.15,48.15,0,0,1-2.63-12.36,46.37,46.37,0,0,1,2.42-19.45,48.73,48.73,0,0,1,9.63-16.41A52,52,0,0,1,600,760.92a52.27,52.27,0,0,1,16.9,9.76l.36.32c-1-.54-1.92-1-2.87-1.5a51.08,51.08,0,0,0-11.23-4,47.39,47.39,0,0,0-14.43-1.42l1,4.54c.73,3.41,1.67,8.37,2.3,13.63a27.74,27.74,0,0,0-29.72,7.49,26.21,26.21,0,0,0-5.27,8.83A25,25,0,0,0,555.68,809a25.41,25.41,0,0,0,2.86,10.16A27.38,27.38,0,0,0,562,824.3l-.74.13a68,68,0,0,1-22-.44Zm95.11,1.15a50.22,50.22,0,0,1-10.08,16.06,52,52,0,0,1-15.33,11.26,50.81,50.81,0,0,1-38.55,2.23,51.63,51.63,0,0,1-16.45-9.43A51,51,0,0,1,538,829.55c.09-.12,45.38,10.31,55.2-26.06a22.69,22.69,0,0,1,1.9,6.89s7.08-13.69,1.09-40.26c0,0,18.09.91,29.15,15.76a16.6,16.6,0,0,0-.29-6.06,50.94,50.94,0,0,1,3.56,6,46.41,46.41,0,0,1,4.82,19A47.25,47.25,0,0,1,630.23,824.23Zm88.32,36.23a1.63,1.63,0,0,1-1.74,1.52q-11-.75-22.1-1.41a1.62,1.62,0,0,1-1.36-.9q-13-26.48-26.56-52.81a1.64,1.64,0,0,0-3.09.68q-1.12,24.84-2.24,49.67a1.63,1.63,0,0,1-1.7,1.56q-9.76-.43-19.55-.79a1.62,1.62,0,0,1-1.57-1.68q1.7-47.49,3.37-95a1.65,1.65,0,0,1,1.7-1.58q11.64.42,23.27,1a1.64,1.64,0,0,1,1.38.87q13.8,26.28,27,52.71a1.63,1.63,0,0,0,3.08-.63q1.48-24.89,3-49.78a1.64,1.64,0,0,1,1.73-1.54q10.23.61,20.45,1.31a1.65,1.65,0,0,1,1.52,1.75Q721.83,812.93,718.55,860.46Zm65.88,5.59a1.62,1.62,0,0,1-1.78,1.46q-27.76-2.65-55.6-4.68a1.63,1.63,0,0,1-1.51-1.74l6.84-95.2a1.63,1.63,0,0,1,1.75-1.51q10.22.74,20.44,1.56a1.64,1.64,0,0,1,1.5,1.77q-3,36.25-5.9,72.5a1.63,1.63,0,0,0,1.49,1.76q16.59,1.37,33.17,2.95a1.64,1.64,0,0,1,1.47,1.79Q785.37,856.37,784.43,866.05ZM876,878.17q-10.25-1.39-20.49-2.69a1.61,1.61,0,0,1-1.39-1.3q-1-5-2-10a1.63,1.63,0,0,0-1.41-1.31q-14.41-1.79-28.84-3.41a1.65,1.65,0,0,0-1.67.94q-2.19,4.65-4.36,9.31a1.63,1.63,0,0,1-1.65.93q-10.32-1.12-20.64-2.16a1.63,1.63,0,0,1-1.32-2.31q21-45.79,43.29-91.24a1.64,1.64,0,0,1,1.66-.91q10,1.14,20.05,2.37a1.65,1.65,0,0,1,1.41,1.3q10.2,49.27,19.15,98.6A1.64,1.64,0,0,1,876,878.17Zm86.79,13.37q-10.95-1.89-21.91-3.68a1.6,1.6,0,0,1-1.26-1q-10.22-27.69-21.07-55.29a1.64,1.64,0,0,0-3.14.36q-3.68,24.6-7.34,49.19a1.63,1.63,0,0,1-1.85,1.38q-9.7-1.44-19.42-2.81a1.63,1.63,0,0,1-1.39-1.84q6.57-47.05,13.12-94.12a1.64,1.64,0,0,1,1.85-1.4q11.56,1.62,23.11,3.35a1.63,1.63,0,0,1,1.28,1q11.09,27.57,21.52,55.23a1.63,1.63,0,0,0,3.14-.31q4-24.62,8.06-49.22a1.63,1.63,0,0,1,1.88-1.35q10.14,1.66,20.28,3.42a1.63,1.63,0,0,1,1.33,1.89q-8.15,47-16.3,93.91A1.63,1.63,0,0,1,962.75,891.54ZM1050.5,859a47,47,0,0,1-7.41,17.47,49.33,49.33,0,0,1-13,12.9,51.49,51.49,0,0,1-16.95,7.4,52.56,52.56,0,0,1-19.32.89h-.11q-10.42-1.95-20.88-3.8a1.63,1.63,0,0,1-1.32-1.89q8.34-47.19,16.67-94.39a1.63,1.63,0,0,1,1.9-1.32q10.94,1.93,21.85,4a.59.59,0,0,1,0,.13,52.7,52.7,0,0,1,31.52,22,49.74,49.74,0,0,1,7.18,17.35A46.94,46.94,0,0,1,1050.5,859Z"/></svg>