<?xml version="1.0" encoding="UTF-8"?>
<svg id="a" data-name="Layer 10" xmlns="http://www.w3.org/2000/svg" viewBox="0 0 1393.51 1482.07">
  <defs>
    <style>
      .b {
        fill: #fff;
      }
    </style>
  </defs>
  <path class="b" d="M521.09,510.38c25.33-7.74,79.64-23.39,126.69-22.61,36.44.6,81.69,21.68,96.9,29.02,34.29,16.55,26.4,43.6,12.51,70.77-6.52,12.75-21.5,31.49-32.87,40.18-40.03,30.6-97.91,57.28-117.39,64.68s-59.28,11.69-73.77,18.65c-28.17,13.52-50.84,55.96-40.27,92.35,15.8,54.41,57.76,108.4,95.61,148.82,17.8,19.01,60.9,7.3,89.49,10.15,40.51,4.04,86.59,31.21,111.66,15.4,16.11-10.16,79.92-59.09,119.36-84.23,55.93-35.65,113.62-67.43,168.23-85.79,12.86-4.32,18.1-49.58,13.9-75.45-4.2-25.87-14.79-54.37-26.76-77.69-1.65,33.67-14.32,69.36-28.71,99.84-13.52-2.83-32.36-15.65-44.22-22.75-5.03,12.46-7.12,23.52-8.82,36.84-13.89-3.93-26.02-12.8-39.9-16.73-4.61,14.13-9.57,26.57-14.18,40.7-17.02-6.08-29.42-6.89-47.43-8.46-9.35,17.14-13.09,21.89-19.85,40.21-13.19,7.5-26.55,14.68-41.01,21.16-28.93,12.96-58.86,16.42-87.78,3.44-19.73-8.86-33.2-25.95-48.02-41.7-18.8-20-34.65-46.65-45.82-59.72-10.19,14.14-19.73,34.5-19.82,26.41-.33-29.12,28.28-72.81,51.14-67.05,2.24.57-6.15,10.12-19.59,18.41,39.52,24.7,80,49.94,125.46,62.05,3.3.88,11.46,4.44,14.71,3.07,3.64-1.54,7.18-11.41,9.22-14.8,6.3-10.45,12.95-20.69,19.93-30.7,7.44-10.67,17.04-24.38,26.52-36.96,3.13-4.15,13.36-.76,13.36-.76,0,0,6.57-27.47,9.92-28.11,8.62-1.66,28.25,9.37,44.29,13.05,4.61-15.69,4.74-39.85,2.1-55.92,11.94,6.29,29.5,13.46,41.44,19.75,6.93-19.38,9.83-49.69,7.86-70.18,23.95,22.83,50.49,58.55,64.1,88.71,11.32-44.33,5.38-90.75-17.32-130.47-16.58-29.02-43.61-62.22-73-81.59-22.04,20.1-40,27.86-72.06,43.54-25.85-16.35-56.09-36.1-79.46-55.5-17.65-14.65-23.74-11.46-22.09-41.23-72.57.48-173.89-6.7-214.73-4.34-69.76,4.03-125.41,43.29-159.39,92.11s-68.72,153.68-70.88,233.14c-1.86,68.35,11.94,137.67,42.56,202.17,129.43,269.73,478.05,339.54,700.79,139.56,200.33-181.65,226.93-494.13,60.67-707.26-186.14-242.94-546.22-274.13-770.83-66-154.45,141.55-224.17,360.68-181,565.58,67.1,327.88,391.91,539.96,719.11,469.46,124.67-26.1,239.65-93.64,324.57-188.4,184.49-200.12,229.92-504.47,113.13-750.16C1167.51,48.99,751.26-98.52,407.98,69.48,234.55,153.93,102.57,313.52,40.77,495.15,11.7,580.27-1.92,670.71.22,760.61c1.35,48.82,7,97.74,16.79,145.58,17.51,86.4,54.55,168.12,103.34,241.22,117.21,176.81,311.74,300.57,522.18,327.96,172.09,23.48,350.66-15.18,496.23-110.24,18.48-11.92,36.94-25.41,54.26-38.95,28.89-23.01,56.23-48.26,81.25-75.27-91.26,84.63-203.94,145.2-324.78,173.2-9.72,2.23-22.03,4.8-31.82,6.66-336.71,62.52-670.14-125.82-783.52-449.98-5.54-16.04-11.19-32.9-15.88-49.2-29.74-97.49-35.95-201.69-18.91-302.16,20.75-124.32,77.32-242.34,161.44-336.23,88.23-100.59,210.41-170.63,342.35-193.72,258.3-47.57,521.17,84.82,637.94,319.82,122.91,243.73,60.44,547.94-150.58,721.74-126.34,104.3-301.23,141.29-459.19,98.24-305.4-80.84-467.33-424.03-335-711.07,33.61-73.49,84.68-139.71,148.8-189.18,188.16-144.99,463.94-108.13,608.03,80.57,138.62,177.51,115.24,439.4-53.62,588.71-87.09,77.24-207.76,106.05-320.53,77.95-163.25-40.9-254.03-187.75-253.97-345.24.02-44.2,28.32-209.96,96.06-230.65Z"/>
</svg>