<svg xmlns="http://www.w3.org/2000/svg" viewBox="0 0 949.4 887.3"><defs><style>.cls-1{fill:#fff}</style></defs><g id="FINAL"><path d="M936.4 544.9c8.5-33.5 13.1-68.6 13.1-104.8 0-220.2-168.3-401.1-383.2-421.2 0 0-36.9 36.7 19.2 80.5 67.3 52.6 180.2 24.1 248.1 86.8 61.8 57.1 120.5 176.1 102.9 358.6ZM81.3 480C73 413.7 93.4 341.7 112 292.9c11.7-30.7 25.4-58.9 37.6-80.2L100.4 230 0 420.2l11.6 32.4 70.5 31.8c-.3-1.6-.6-3.1-.8-4.4" class="cls-1"/><path d="M402.5 543.7c35-6.2 57.1-47.7 49.2-92.4-3.9-22-14.3-41.4-29.4-54.7-12-10.6-25.8-16.1-39.6-16.1s-5.9.3-8.9.8c-16.7 2.9-31 13.9-40.3 31-9.6 17.6-12.8 39.4-8.9 61.4s14.3 41.4 29.4 54.7c14.6 12.8 31.8 18.3 48.5 15.4Z"/><path d="M903.9 591.6c-23.5 31.3-39.1 41.5-75.9 61.8-15.3 8.5-95.5 2.3-250.4-6.3-42.9-2.4-95.9-71.6-127.6-117.9-3.8 5.2-8.1 9.9-12.9 14 32.3 42.3 71 112.5 115.5 112.5 78.6 0 237.9 34.4 299.7 39.3 16.8 1.3 40.3-5.6 52.2-17.3 8.5-8.3 11.7-21 10.6-42.1-.5-10.2 18.3-11.5 26.3-53.5 2.2-11.7-27.6-3.9-37.6 9.4Z" class="cls-1"/><path d="M491.5 24.2c-21.5 39.5-53.9 116.7-72 161.6-8.9 22-31.6 111.6-41.6 179.8 5.5-.4 10.9-.1 16.3.8 11-71.4 36.7-152.6 42.7-168.9 11-30.1 68.9-141.7 87.2-175.4 17.6-32.3-16.6-27.2-32.6 2.1"/><path d="M744.6 689.6c-67.9-11.2-144.9-23.8-192.1-23.8-41 0-74.6-47.6-104.1-89.7-6.7-9.5-13.2-18.8-19.4-26.9-7.2 4.6-15.2 7.8-23.9 9.3-3.8.7-7.7 1-11.6 1-17.4 0-34.6-6.9-49.4-19.9-17.6-15.5-29.8-38-34.3-63.3s-.7-50.6 10.5-71.2c10.9-19.9 27.5-33.2 47.2-37.8 3.9-27.6 9.7-56.4 13.8-75.8 9.8-46 22.2-93 28.8-109.3 21-52.1 49.7-119.3 69.6-157.1-113.6 14-215.2 84.7-295.6 164-22.9 22.6-102.5 172.4-87.9 289.1 2.3 18.1 25.9 71.6 57 132.9C209 634.9 450.1 725 508.9 732.3c66.8 8.3 233.2 12 294.2-4.6l2.3-.6.4.3c10.4-7.9 19.1-16.4 26-24.3-23.3-2.9-53.6-7.9-87.3-13.4Z" class="cls-1"/><path d="M438.6 391.6c13.3-2.4 26.5-4.2 37.6-6.2 19.4-3.4 1.3-12.2 1.9-34.4 26.6-10.5 76.3-15.1 76.3-15.1l3.6-14.6s-63.4-13.6-99.8-17.4c-8.5-21.8-14.8-44.4-10.1-62.6 2.1-8.2 3.6-24.2 11.7-21.8 24.1 6.9 61.5 8.6 100.5 17.6 30.2 6.9 62.8 34.8 74.1 43.6 25.6 19.8 14.3 40.9-2.1 61.1-7.7 9.5-23.5 22.4-34.5 27.6-38.7 18.4-81.8 25.2-123.1 35.4-5.1 1.3-13.8 1.9-23.9 2.4 7.6 12.2 13 26.3 15.7 41.3 4.6 26.3.2 51.6-10.7 71.4 12.3 18.1 29.4 42 47.8 63.3 37.5 43.1 61.2 53.1 74.5 53.8 21.9 1.2 42 2.4 61.3 3.5q10.35.6 20.1 1.2c15.9-7 31.9-13.7 44.8-18.5 52.8-19.8 106.5-36 155.1-41.6 11.5-1.3 23.8-38.1 24.9-60.3 1.1-22.3-2.7-47.9-8.5-69.4-7.3 27.7-24.2 55.2-41.5 78-10.8-4.7-24.2-18.7-32.8-26.7-6.4 9.5-10.1 18.3-13.9 29.1-10.9-5.7-19.4-15.2-30.2-21-6.3 10.9-12.7 20.4-19 31.4-13.1-8.1-23.3-10.9-38-15.4-10.8 12.6-14.8 15.9-23.6 29.9-12.3 3.9-24.7 7.5-37.9 10.3-26.4 5.7-51.9 3.3-73.6-12.7-14.9-10.9-23-27.5-32.6-43.2-12.1-20-20.6-44.9-27.6-57.8-11 10-22.5 25.2-21.2 18.5 4.9-24.3 36.4-55.6 54.4-46.7 1.8.9-6.9 7.3-19.6 11.9 28.5 27.5 57.7 55.7 93.4 73.8 2.6 1.3 8.8 5.7 11.7 5.2 3.3-.6 8-8.2 10.3-10.7 7.1-7.6 14.4-14.9 22-22 8.1-7.6 18.5-17.3 28.6-26.1 3.3-2.9 11.2 1.7 11.2 1.7s10.3-21.7 13.2-21.6c7.5.1 21.8 12.8 34.5 18.7 6.6-12.2 11-32.3 11.6-46.2 8.8 7.3 22.2 16.4 31 23.8 9.2-14.9 17-39.6 18.9-57 15.9 23.2 31.7 57.6 37.6 85.1 17.3-34.9 20.5-74.6 8.7-111.6-8.7-27.1-25.3-59.5-46.3-80.8-21.9 12.8-38.2 16.1-67.7 23.5-18.6-18.2-40.3-40-56.3-60.2-12.1-15.3-17.7-13.7-11.1-38.2-60.5-12.4-147.5-37.3-182.3-37.3-7.3 0-15 .5-23 1.4-8.8 18.2-15.8 33.5-18.9 42-8.1 22-32 100.7-42.3 167.9 9.9 3.3 19.5 8.8 28.2 16.4 2.2 2 4.4 4.1 6.5 6.3ZM216.9 646.8c-34.1-13-60.7-23.5-71.8-28.4-2.7 5-7.3 21.4-10.7 47.2-3.5 26.7-4.2 51.4-1.7 65.3 14 11.6 34.8 26.2 61 41.8 3.4-32.4 14.8-104.6 23.2-126Zm-7.7 134.9c13 7.3 27.1 14.7 42.1 21.9 7.1-43.8 15.8-87.4 29.2-133.1-15.3-5.6-30.1-11.1-44-16.3-6.9 25.1-25.8 104.3-27.4 127.4ZM803.1 738c-67.8 17-237.5 11.3-295.4 4.1-32.7-4.1-116.8-31.9-196.4-60.5-12.1 42-20.9 85.5-26.8 137 91.8 39.4 189.5 62.5 290.2 68.6 15.1.9 52.5-7.1 102.5-21.9 43.3-12.8 79.7-25.9 85.7-29.2 9.3-5.2 41.2-56.5 42.9-85.7.3-5.7-.6-9.8-2.6-12.4Zm-678.5-74.6c1.1-8.1 3.3-22.7 6.5-34.8-1.6-.2-3.1-.5-4.5-.8-12.1 5.8-22.7 38.9-27.4 46.1s1.3-41.9 14.5-49.6c-3.4-1.2-6.5-2.6-9.2-4.1-14.9 7.7-42.2 39.3-37.6 32.4 6.2-9.5 14.2-34.5 28.8-37.6.2 0 .4 0 .6-.1-2.6-2-4.7-4-6.4-6-22.6 2-61.4 27.1-54.9 21.3 13.3-11.8 28.4-15.1 50.4-28.1-.7-2.1-1.2-4.9-1.7-8.3-14.7 2.1-54 4.9-45.6 2.3 15.6-4.7 30.8-14.4 44.4-18.6-.1-4.1-.2-8.4-.2-12.9-18.1 0-58.9-7.5-51-9.4 17.2-4.1 36.9-4.2 51.3-6.7.2-5.6.5-11.3.8-16.9-16.8-1.5-55.6-18.8-47.4-17.3 17.4 3.3 34.8 3.2 48.7.8.4-4.3.9-8.5 1.4-12.3l-72.4-32.6c-18.9 57.5-8.3 165.8 1.2 178 7.7 10 62.1 54.3 106.4 62.3 0-13.5 1.1-29.7 3.4-46.8Z" class="cls-1"/></g></svg>