<svg xmlns="http://www.w3.org/2000/svg" data-name="Layer 1" viewBox="0 0 405.1 162"><path d="M9.1 162c-7.1-3.3-9.8-7-8.9-13.7.3-2.2 2.2-4.1 3.5-6.1 1.1-1.7 2.9-3.1 3.3-4.8 5.1-25.5 7.3-51.4 5.9-77.4-.8-15.1-3.4-30-5.1-45 0-.8-.7-1.9-.4-2.4 1.1-1.9 2.6-3.7 3.9-5.5 1.6 1.3 4.3 2.4 4.6 4.1 2.1 8.9 4 17.8 5.1 26.9 1.8 14.1 2.9 28.3 4.3 42.9 12.5-5.3 25.6-9.6 36.3-19.2 16-14.4 30.2-30 36.9-51.1 1.1-3.5 1.8-7.1 2.6-10.6h3c3.5 5.2 1.9 10.5 0 15.7-9 25.4-25.1 45.5-46.4 61.6-1.6 1.2-3.1 2.3-5.6 4.2 10.1 1.4 18 5.1 24 12.1 3.2 3.8 6.6 7.6 8.7 12.1 6.7 13.9 12.9 28 19 42.2 2.1 4.9.4 9.1-3.7 10.9-4.1 1.7-7.8.3-10-4.7-4.5-9.9-8.5-20.2-13.1-30.1-2.7-5.9-5.9-11.5-9.3-17-5.5-9-14-11.2-23.8-9.4-5.7 1.1-11.3 2.7-17 3.7-4.2.7-3.4 4-3.7 6.5-1.5 12.2-2.8 24.4-4.3 36.6-.4 3.3-.8 6.8-2.3 9.6-1.6 3-4.4 5.4-6.7 8.1h-1Zm152.7-9.1c-19.7 0-32.9-11.1-35.3-30.1-1.1-8.7 1.7-16.8 6.2-24.2.8-1.3 2.2-2.4 2.4-3.8 2.1-13.2 12.6-16.7 23.1-18.3 15.7-2.4 30.8.3 41.9 13.1 12 13.8 15.2 34.8-3.1 49.9-9.6 7.9-23 13.2-35.2 13.2Zm.2-13.6c9.8-.7 20.1-4.1 28.1-12.8 4.5-4.8 6-10.5 4.1-17-3-10.6-10.8-14.9-20.7-17.7-13-3.6-23.3 2.5-31.3 10.3-6.4 6.2-6.7 16.4-2.6 25.3 4 8.7 11.6 11.8 22.4 12Zm243.1-30.9c-.2 24.4-18.3 42.5-42.7 41.7-4.6-.1-9.4-.3-13.8-1.6-19-5.8-27-16.5-23.4-37.6 1.2-7.4 3-14.6 4.8-21.9.4-1.5 2.1-2.6 3.2-3.8 1.2 1.4 3.4 2.6 3.5 4.1.4 5.3.2 10.6 0 15.9-.1 4.1-.5 8.3-.8 12.4-.6 7.4 3.1 12.4 9.5 15.4 10.7 5.1 21.5 5.4 31.9-.8 11.7-6.9 13.1-18 11.5-30-.5-3.8-1.3-7.5-2.3-11.2-1.3-4.9.8-9.9 4.9-11.1 4.2-1.2 8.4 1.2 9.6 6.4 1.7 7.2 2.7 14.6 4 22ZM271.6 129c5.9-12.9 11.6-25.9 17.7-38.7 1.1-2.3 3.3-4.9 5.5-5.8 5.4-2.1 10.7 3.5 8.6 9.4-2.2 6.2-5.5 12-8.3 18-4.2 9.2-8.3 18.5-12.5 27.7-1.8 3.9-3.9 7.8-8.6 8.1-4.9.3-8.2-2.9-10.1-7-7.8-17.3-19.3-31.7-33-44.6-2-1.9-3.5-4.4-5-6.8-.5-.8-.7-2.7-.2-3 .9-.6 2.6-1 3.5-.6 1.8.8 3.4 2 4.9 3.3 13.5 11.9 26.9 23.9 36.2 39.6.1.2.6.2 1.2.4ZM160.2 41.1c.2 1.4.5 2.9.7 4.3.6 5.1-2.9 10.4-7.5 11.5-4.8 1.1-9-1.7-10.7-7.3-1.7-5.7-.7-11.2 1.9-16.4 1.7-3.4 5.1-5.5 8.7-4.1 2.6 1 4.7 3.7 6.4 6.1 1 1.5.7 3.8.9 5.8h-.5Zm27.5-2.6c-1.1 3.9-2 8-3.5 11.8-1.2 3.2-3.6 5.2-7.4 4.7-3.9-.5-6-3-6.6-6.5-1.2-6.4-.6-12.8 3.5-18.1 1.7-2.1 5.3-4.1 7.7-3.9 1.9.2 3.8 3.9 5.1 6.3.8 1.5.5 3.6.6 5.4.2 0 .4.1.6.2Zm2.7 21.7c2.6-5.1 4.5-9.8 7.2-14 2-3.1 5.5-4.3 9.2-2.7 3.6 1.5 5.2 4.5 5.2 8.3 0 6.2-2.5 11.5-7.6 14.8-2.3 1.5-6.2 2.2-8.6 1.2-2.2-.9-3.4-4.5-5.4-7.6M112 56c0-5.2 2.6-9.1 6.5-10.1 4-.9 7.9 1.4 10.3 6.1.4.9.9 1.8 1.1 2.8.8 4.8.5 9.7-3.5 12.8-1.9 1.5-5.7 1.7-8.2 1-4-1.1-6.2-6.7-6.2-12.6" style="fill:#000;stroke-width:0"/></svg>