<svg xmlns="http://www.w3.org/2000/svg" viewBox="0 0 405.2 161.9"><path d="M3 158.7c-3.8-5.4-5.3-16.4 3.4-17.5 7.9-39.4 9.6-80.1 2.3-119.8-.4-3.7-1.6-7.5-1.1-11.3.5-2.4 3.3-4 5.7-3.3 3.2.6 3.6 5 4 7.3 4.7 21.6 7.8 43.6 7.8 65.7.3 16.5-1.3 32.9-3.3 49.2-1.9 9.7-2 43.3-18.8 29.6Z"/><path d="M93.7 158.6c-5.4-4.3-7.3-16.9-11.3-23.4-5-10.3-8.7-21.6-16.1-30.5-10.2-13.6-26.8-5.2-40.1-2.8-13.4 1.4-16.9-14-4.4-19 10.9-6.2 23.6-9 33.9-16.4 19.5-15.4 38-35.4 44.2-60.1-4.3-7.4 13.3-13.2 4.3 11.8-9.2 25-29.3 49.2-51.7 63.5C70 82 82.3 97 88.9 111.8c5.7 12.5 12.1 24.8 16.5 37.9 2.1 6.6-5.9 12.6-11.6 9Zm65.3-5.5c-31.9-2-41.7-35.3-23.1-58.7-1.3-7.3 7-11.9 12.3-15 13.5-6 30.2-4.2 43.2 2.3 15.7 8.9 24.6 31.2 15.5 47.7-9.8 15.7-29.7 24.9-47.9 23.8Zm4.9-14c12.2-1.7 27.6-8.2 31.2-21.1 2.2-20.1-17.9-29.2-35.2-26-6.9.3-9.9 8.6-16.6 8.6-11.4 18.7-3.2 40.3 20.6 38.6Zm107.6 8.5c-6.5-2.2-8.7-9.6-11.6-15.1-3.9-7.6-8.6-14.8-14.2-21.2-2.4-4.3-26.7-23.5-18.7-26.2 5.3-1.2 8.7 5.6 12.6 8.2 12.6 10.3 23.9 22.2 32.1 36.4 5.2-14.2 12.9-27.3 18.4-41.3 2.3-6.1 11.8-6.1 14.1 0 2 8.1-5.4 15.7-8.1 23.2-3.6 7.4-7.5 14.6-10.5 22.3-2.2 6.5-5.4 16.2-14.1 13.8Zm91.9 3.1c-15.3.3-33.5-6.5-38.1-22.5-2.5-13.6 2.8-27.3 5-40.6.7-2.9 4.9-3.4 6.5-.9 4.3 12.4-3.4 26.6 1 39.2 7.9 12.4 31.5 14.2 42.2 4.7 13.1-10.2 9.5-21.6 8.1-36.1-6.6-12.1 6.8-20.9 13.3-10 3.8 11.1 6.2 33 .4 43.4-7.9 13.5-22.2 24.3-38.4 22.9ZM119.1 69.5c-5.6-2.3-7.3-9.5-7-15 .2-5.3 5.1-10.5 10.7-8.8 5.2 1.8 8.7 8.4 8.2 13.7-.6 2.8-1.3 6-3.3 8.1-2.1 2.3-5.7 3.2-8.6 2m31.5-12.1c-10.1-2-9.6-15.7-6.4-23.2 2.3-5.7 9.7-8 14.1-3.2 2.9 3.3 3.3 8.1 2.6 12.3 2.9 6.4-3.2 15.3-10.4 14.1Zm23.1-3.4c-9.1-6.7-.6-35.8 11.8-26.4 5.1 7.4 1.9 34.5-11.8 26.4m24.5 15.2c-13-1.8-3.3-28.5 7.4-26.5 14.4 3.4 4.9 27.5-7.4 26.5"/></svg>